<?xml version="1.0" encoding="iso-8859-1"?>
<!-- Generator: Adobe Illustrator 19.0.0, SVG Export Plug-In . SVG Version: 6.00 Build 0)  -->
<svg version="1.1" id="Capa_1" xmlns="http://www.w3.org/2000/svg" xmlns:xlink="http://www.w3.org/1999/xlink" x="0px" y="0px"
	 viewBox="0 0 491.52 491.52" style="enable-background:new 0 0 491.52 491.52;" xml:space="preserve">
<circle style="fill:#E05B49;" cx="245.76" cy="245.76" r="245.76"/>
<path style="fill:#FCD462;" d="M316.829,364.393l-22.072-51.243h-99.448l-22.072,51.243h-56.326l102.514-237.266h51.244
	l102.514,237.266H316.829z M245.198,197.735l-29.862,68.895h59.393L245.198,197.735z"/>
<g>
	<rect x="199.117" y="263.936" style="fill:#3A556A;" width="91.858" height="5.263"/>
	<rect x="199.117" y="124.493" style="fill:#3A556A;" width="91.858" height="5.263"/>
	<rect x="179.507" y="310.272" style="fill:#3A556A;" width="131.082" height="5.263"/>
	<rect x="293.069" y="361.779" style="fill:#3A556A;" width="93.507" height="5.263"/>
	<rect x="104.96" y="361.779" style="fill:#3A556A;" width="93.819" height="5.263"/>
	
		<rect x="319.286" y="100.705" transform="matrix(-0.918 0.3966 -0.3966 -0.918 714.9069 343.6807)" style="fill:#3A556A;" width="5.263" height="290.11"/>
	
		<rect x="23.133" y="243.122" transform="matrix(-0.3965 0.918 -0.918 -0.3965 460.4864 188.8026)" style="fill:#3A556A;" width="290.109" height="5.263"/>
	<polygon style="fill:#3A556A;" points="282.269,277.318 241.375,182.171 236.541,184.248 276.542,277.318 	"/>
	<polygon style="fill:#3A556A;" points="285.972,299.257 320.656,379.956 325.489,377.878 291.698,299.257 	"/>
	<polygon style="fill:#3A556A;" points="213.962,277.318 253.963,184.248 249.129,182.171 208.236,277.318 	"/>
	<polygon style="fill:#3A556A;" points="198.806,299.257 165.015,377.878 169.848,379.956 204.532,299.257 	"/>
</g>
<g>
</g>
<g>
</g>
<g>
</g>
<g>
</g>
<g>
</g>
<g>
</g>
<g>
</g>
<g>
</g>
<g>
</g>
<g>
</g>
<g>
</g>
<g>
</g>
<g>
</g>
<g>
</g>
<g>
</g>
</svg>
